{"accessors":[{"bufferView":2,"componentType":5126,"count":42,"max":[1,1.0285381078720093,1],"min":[-1,0,-1],"type":"VEC3"},{"bufferView":2,"byteOffset":504,"componentType":5126,"count":42,"max":[0,1,1],"min":[0,0,0],"type":"VEC3"},{"bufferView":1,"componentType":5126,"count":42,"max":[1,1],"min":[0,0],"type":"VEC2"},{"bufferView":0,"componentType":5125,"count":120,"type":"SCALAR"},{"bufferView":2,"byteOffset":1008,"componentType":5126,"count":1815,"max":[0.044501256197690964,0.009999999776482582,0.08557529747486115],"min":[-0.047217197716236115,-0.009999999776482582,-0.03155843913555145],"type":"VEC3"},{"bufferView":2,"byteOffset":22788,"componentType":5126,"count":1815,"max":[1,1,1],"min":[-1,-1,-1],"type":"VEC3"},{"bufferView":1,"byteOffset":336,"componentType":5126,"count":1815,"max":[1,1],"min":[0,0],"type":"VEC2"},{"bufferView":0,"byteOffset":480,"componentType":5125,"count":5298,"type":"SCALAR"},{"bufferView":2,"byteOffset":44568,"componentType":5126,"count":882,"max":[0.009544067084789276,0.007000000216066837,0.04804405942559242],"min":[-0.010336071252822876,-0.007000000216066837,-0.05028246343135834],"type":"VEC3"},{"bufferView":2,"byteOffset":55152,"componentType":5126,"count":882,"max":[1,1,1],"min":[-1,-1,-1],"type":"VEC3"},{"bufferView":1,"byteOffset":14856,"componentType":5126,"count":882,"max":[1,1],"min":[0,0],"type":"VEC2"},{"bufferView":0,"byteOffset":21672,"componentType":5125,"count":2514,"type":"SCALAR"},{"bufferView":2,"byteOffset":65736,"componentType":5126,"count":563,"max":[0.011538460850715637,0.004999999888241291,0.011537350714206696],"min":[-0.011539317667484283,-0.004999999888241291,-0.011535562574863434],"type":"VEC3"},{"bufferView":2,"byteOffset":72492,"componentType":5126,"count":563,"max":[1,1,1],"min":[-1,-1,-0.9998712539672852],"type":"VEC3"},{"bufferView":1,"byteOffset":21912,"componentType":5126,"count":563,"max":[1,1],"min":[0,0],"type":"VEC2"},{"bufferView":0,"byteOffset":31728,"componentType":5125,"count":1578,"type":"SCALAR"},{"bufferView":2,"byteOffset":79248,"componentType":5126,"count":611,"max":[0.010929528623819351,0.004999999888241291,0.010927222669124603],"min":[-0.01214824989438057,-0.004999999888241291,-0.01214568316936493],"type":"VEC3"},{"bufferView":2,"byteOffset":86580,"componentType":5126,"count":611,"max":[1,1,1],"min":[-1,-1,-0.9998642206192017],"type":"VEC3"},{"bufferView":1,"byteOffset":26416,"componentType":5126,"count":611,"max":[1,1],"min":[0,0],"type":"VEC2"},{"bufferView":0,"byteOffset":38040,"componentType":5125,"count":1722,"type":"SCALAR"},{"bufferView":2,"byteOffset":93912,"componentType":5126,"count":534,"max":[0.010877639055252075,0.0020000000949949026,0.0034448967780917883],"min":[-0.012141835875809193,-0.0020000000949949026,-0.0029528422746807337],"type":"VEC3"},{"bufferView":2,"byteOffset":100320,"componentType":5126,"count":534,"max":[1,1,1],"min":[-1,-1,-0.9999990463256836],"type":"VEC3"},{"bufferView":1,"byteOffset":31304,"componentType":5126,"count":534,"max":[1,1],"min":[0,0],"type":"VEC2"},{"bufferView":0,"byteOffset":44928,"componentType":5125,"count":1524,"type":"SCALAR"},{"bufferView":2,"byteOffset":106728,"componentType":5126,"count":426,"max":[0.010667704045772552,0.0020000000949949026,0.0034906864166259766],"min":[-0.01216171681880951,-0.0020000000949949026,-0.0029088854789733887],"type":"VEC3"},{"bufferView":2,"byteOffset":111840,"componentType":5126,"count":426,"max":[1,1,1],"min":[-1,-1,-0.9998642206192017],"type":"VEC3"},{"bufferView":1,"byteOffset":35576,"componentType":5126,"count":426,"max":[1,1],"min":[0,0],"type":"VEC2"},{"bufferView":0,"byteOffset":51024,"componentType":5125,"count":1230,"type":"SCALAR"},{"bufferView":2,"byteOffset":116952,"componentType":5126,"count":563,"max":[0.011538460850715637,0.004999999888241291,0.011537697166204453],"min":[-0.011539317667484283,-0.004999999888241291,-0.01153520867228508],"type":"VEC3"},{"bufferView":2,"byteOffset":123708,"componentType":5126,"count":563,"max":[1,1,1],"min":[-1,-1,-0.9998712539672852],"type":"VEC3"},{"bufferView":1,"byteOffset":38984,"componentType":5126,"count":563,"max":[1,1],"min":[0,0],"type":"VEC2"},{"bufferView":0,"byteOffset":55944,"componentType":5125,"count":1578,"type":"SCALAR"},{"bufferView":2,"byteOffset":130464,"componentType":5126,"count":428,"max":[0.010667704045772552,0.0020000000949949026,0.003490682691335678],"min":[-0.01216171681880951,-0.0020000000949949026,-0.002908904105424881],"type":"VEC3"},{"bufferView":2,"byteOffset":135600,"componentType":5126,"count":428,"max":[1,1,1],"min":[-1,-1,-0.9998642206192017],"type":"VEC3"},{"bufferView":1,"byteOffset":43488,"componentType":5126,"count":428,"max":[1,1],"min":[0,0],"type":"VEC2"},{"bufferView":0,"byteOffset":62256,"componentType":5125,"count":1230,"type":"SCALAR"}],"asset":{"extras":{"author":"3David (https://sketchfab.com/davidarcoooo)","license":"CC-BY-4.0 (http://creativecommons.org/licenses/by/4.0/)","source":"https://sketchfab.com/3d-models/3d-clipboard-icon-6fbb2f950fa04a18ac3728fcb8377650","title":"3D Clipboard Icon"},"generator":"Sketchfab-12.68.0","version":"2.0"},"bufferViews":[{"buffer":0,"byteLength":67176,"name":"floatBufferViews","target":34963},{"buffer":0,"byteLength":46912,"byteOffset":67176,"byteStride":8,"name":"floatBufferViews","target":34962},{"buffer":0,"byteLength":140736,"byteOffset":114088,"byteStride":12,"name":"floatBufferViews","target":34962}],"buffers":[{"byteLength":254824,"uri":"data:application/octet-stream;base64,"}],"materials":[{"doubleSided":true,"name":"material_0","pbrMetallicRoughness":{"baseColorFactor":[0,0,0,1],"metallicFactor":0,"roughnessFactor":0}},{"doubleSided":true,"name":"SVGMat.002","pbrMetallicRoughness":{"metallicFactor":0,"roughnessFactor":0.5}}],"meshes":[{"name":"Object_0","primitives":[{"attributes":{"NORMAL":1,"POSITION":0,"TEXCOORD_0":2},"indices":3,"material":0,"mode":4}]},{"name":"Object_1","primitives":[{"attributes":{"NORMAL":5,"POSITION":4,"TEXCOORD_0":6},"indices":7,"material":1,"mode":4}]},{"name":"Object_2","primitives":[{"attributes":{"NORMAL":9,"POSITION":8,"TEXCOORD_0":10},"indices":11,"material":1,"mode":4}]},{"name":"Object_3","primitives":[{"attributes":{"NORMAL":13,"POSITION":12,"TEXCOORD_0":14},"indices":15,"material":1,"mode":4}]},{"name":"Object_4","primitives":[{"attributes":{"NORMAL":17,"POSITION":16,"TEXCOORD_0":18},"indices":19,"material":1,"mode":4}]},{"name":"Object_5","primitives":[{"attributes":{"NORMAL":21,"POSITION":20,"TEXCOORD_0":22},"indices":23,"material":1,"mode":4}]},{"name":"Object_6","primitives":[{"attributes":{"NORMAL":25,"POSITION":24,"TEXCOORD_0":26},"indices":27,"material":1,"mode":4}]},{"name":"Object_7","primitives":[{"attributes":{"NORMAL":29,"POSITION":28,"TEXCOORD_0":30},"indices":31,"material":1,"mode":4}]},{"name":"Object_8","primitives":[{"attributes":{"NORMAL":33,"POSITION":32,"TEXCOORD_0":34},"indices":35,"material":1,"mode":4}]}],"nodes":[{"children":[1],"matrix":[1,0,0,0,0,2.220446049250313e-16,-1,0,0,1,2.220446049250313e-16,0,0,0,0,1],"name":"Sketchfab_model"},{"children":[2],"name":"root"},{"children":[3,5,7,9,11,13,15,17,19],"matrix":[1,0,0,0,0,2.220446049250313e-16,1,0,0,-1,2.220446049250313e-16,0,0,0,0,1],"name":"GLTF_SceneRootNode"},{"children":[4],"matrix":[6.334062576293945,0,0,0,0,6.334062576293945,0,0,0,0,6.334062576293945,0,0,0,0,1],"name":"Plane_0"},{"mesh":0,"name":"Object_4"},{"children":[6],"matrix":[18.964224606611026,-2.3438755447698347,-9.53301430724372,0,9.64821632731541,8.278053501966502,17.158079181580295,0,1.812190953737464,-19.54466696904004,8.410462906284176,0,-0.17440199851989746,1.959843635559082,0.2853429615497589,1],"name":"Curve.008_11"},{"mesh":1,"name":"Object_6"},{"children":[8],"matrix":[18.964224606611026,-2.3438755447698347,-9.53301430724372,0,9.64821632731541,8.278053501966502,17.158079181580295,0,1.812190953737464,-19.54466696904004,8.410462906284176,0,0.9821271896362305,1.2769806385040283,-0.0355360209941864,1],"name":"Curve.009_12"},{"mesh":2,"name":"Object_8"},{"children":[10],"matrix":[18.964224606611026,-2.3438755447698347,-9.53301430724372,0,9.64821632731541,8.278053501966502,17.158079181580295,0,1.812190953737464,-19.54466696904004,8.410462906284176,0,-0.48214656114578247,1.9255940914154053,0.4749157428741455,1],"name":"Curve.010_13"},{"mesh":3,"name":"Object_10"},{"children":[12],"matrix":[18.964224606611026,-2.3438755447698347,-9.53301430724372,0,9.64821632731541,8.278053501966502,17.158079181580295,0,1.812190953737464,-19.54466696904004,8.410462906284176,0,-0.4152497351169586,1.3272227048873901,0.7259879112243652,1],"name":"Curve.011_14"},{"mesh":4,"name":"Object_12"},{"children":[14],"matrix":[18.964224606611026,-2.3438755447698347,-9.53301430724372,0,9.64821632731541,8.278053501966502,17.158079181580295,0,1.812190953737464,-19.54466696904004,8.410462906284176,0,0.10265935957431793,1.8552708625793457,0.17999958992004395,1],"name":"Curve.012_15"},{"mesh":5,"name":"Object_14"},{"children":[16],"matrix":[18.964224606611026,-2.3438755447698347,-9.53301430724372,0,9.64821632731541,8.278053501966502,17.158079181580295,0,1.812190953737464,-19.54466696904004,8.410462906284176,0,0.15874235332012177,1.2736443281173706,0.42907387018203735,1],"name":"Curve.013_16"},{"mesh":6,"name":"Object_16"},{"children":[18],"matrix":[18.964224606611026,-2.3438755447698347,-9.53301430724372,0,9.64821632731541,8.278053501966502,17.158079181580295,0,1.812190953737464,-19.54466696904004,8.410462906284176,0,-0.3736554980278015,0.7555069327354431,0.9784277677536011,1],"name":"Curve.014_17"},{"mesh":7,"name":"Object_18"},{"children":[20],"matrix":[18.964224606611026,-2.3438755447698347,-9.53301430724372,0,9.64821632731541,8.278053501966502,17.158079181580295,0,1.812190953737464,-19.54466696904004,8.410462906284176,0,0.21298561990261078,0.6886247992515564,0.6808195114135742,1],"name":"Curve.015_18"},{"mesh":8,"name":"Object_20"}],"scene":0,"scenes":[{"name":"Sketchfab_Scene","nodes":[0]}]}